<svg aria-hidden="true" style="position: absolute; width: 0; height: 0; overflow: hidden;" version="1.1" xmlns="http://www.w3.org/2000/svg" xmlns:xlink="http://www.w3.org/1999/xlink">
<defs>
<symbol id="icon-responsive" viewBox="0 0 971.44 502">
<title>Web Development</title>
<defs><linearGradient id="341b0e5e-a21f-44db-b85f-76180f33f0d3" x1="599.5" y1="668.05" x2="599.5" y2="199" gradientUnits="userSpaceOnUse"><stop offset="0" stop-color="gray" stop-opacity="0.25"/><stop offset="0.54" stop-color="gray" stop-opacity="0.12"/><stop offset="1" stop-color="gray" stop-opacity="0.1"/></linearGradient><linearGradient id="9c19d1ba-0c1d-4cca-8c15-e6f3831a5e67" x1="485.72" y1="258.88" x2="485.72" y2="71.12" xlink:href="#341b0e5e-a21f-44db-b85f-76180f33f0d3"/><linearGradient id="fe76f7c7-2126-4e48-920d-21143a22d340" x1="132" y1="515" x2="303" y2="515" xlink:href="#341b0e5e-a21f-44db-b85f-76180f33f0d3"/><linearGradient id="2cf89a04-5a05-413b-983a-d2bc296cbb5e" x1="933" y1="568.28" x2="1031" y2="568.28" xlink:href="#341b0e5e-a21f-44db-b85f-76180f33f0d3"/></defs><title>responsive</title><g opacity="0.7"><path d="M852.69,199H346.31A16.37,16.37,0,0,0,330,215.42V563.94a16.37,16.37,0,0,0,16.31,16.42H520.47v60.16h-7.94a8.3,8.3,0,0,0-8.27,8.33v12.07h16.21v7.14H678.53v-7.14h16.21V648.85a8.3,8.3,0,0,0-8.27-8.33H679V640h-.51V580.36H852.69A16.37,16.37,0,0,0,869,563.94V215.42A16.37,16.37,0,0,0,852.69,199Z" transform="translate(-114.28 -199)" fill="url(#341b0e5e-a21f-44db-b85f-76180f33f0d3)"/></g><rect x="407.72" y="371" width="156" height="92" fill="#bdbdbd"/><g opacity="0.1"><path d="M525.07,579H675.24c1.81-7.87,3.26-13,3.26-13h-157S523.11,571.11,525.07,579Z" transform="translate(-114.28 -199)"/></g><path d="M235.82,3h499.8a16.1,16.1,0,0,1,16.1,16.1V327a0,0,0,0,1,0,0h-532a0,0,0,0,1,0,0V19.1A16.1,16.1,0,0,1,235.82,3Z" fill="#535461"/><path d="M849.9,576H350.1A16.1,16.1,0,0,1,334,559.9V526H866v33.9A16.1,16.1,0,0,1,849.9,576Z" transform="translate(-114.28 -199)" fill="#bdbdbd"/><circle cx="485.72" cy="352" r="9" fill="#535461"/><path d="M399.89,436H571.55a8.17,8.17,0,0,1,8.17,8.17V456a0,0,0,0,1,0,0h-188a0,0,0,0,1,0,0V444.17A8.17,8.17,0,0,1,399.89,436Z" fill="#bdbdbd"/><g opacity="0.5"><rect x="320.72" y="71.12" width="330" height="187.76" rx="4.5" ry="4.5" fill="url(#9c19d1ba-0c1d-4cca-8c15-e6f3831a5e67)"/></g><rect x="324.95" y="72.5" width="321.54" height="183.96" rx="4.5" ry="4.5" fill="#fff"/><g opacity="0.5"><rect x="414.52" y="98.91" width="35.44" height="31.9" rx="4.5" ry="4.5" fill="#636e72"/></g><rect x="460.59" y="98.91" width="95.69" height="3.54" rx="1.77" ry="1.77" fill="#e0e0e0"/><rect x="460.59" y="109.55" width="79.54" height="3.54" rx="1.77" ry="1.77" fill="#e0e0e0"/><g opacity="0.5"><rect x="414.52" y="148.53" width="35.44" height="31.9" rx="4.5" ry="4.5" fill="#636e72"/></g><rect x="460.59" y="148.53" width="95.69" height="3.54" rx="1.77" ry="1.77" fill="#e0e0e0"/><rect x="460.59" y="159.16" width="95.69" height="3.54" rx="1.77" ry="1.77" fill="#e0e0e0"/><g opacity="0.5"><rect x="414.52" y="198.15" width="35.44" height="31.9" rx="4.5" ry="4.5" fill="#636e72"/></g><rect x="460.59" y="198.15" width="95.69" height="3.54" rx="1.77" ry="1.77" fill="#e0e0e0"/><rect x="460.59" y="208.78" width="96.33" height="3.54" rx="1.59" ry="1.59" fill="#e0e0e0"/><line x1="485.72" y1="42" x2="485.72" y2="20" stroke="#636e72" stroke-miterlimit="10" stroke-width="2"/><line x1="485.72" y1="79" x2="485.72" y2="50.13" stroke="#636e72" stroke-miterlimit="10" stroke-width="2"/><circle cx="485.72" cy="79" r="4" fill="#636e72"/><circle cx="485.72" cy="46" r="4" fill="none" stroke="#fff" stroke-miterlimit="10"/><line x1="485.72" y1="42" x2="485.72" y2="20" stroke="#636e72" stroke-miterlimit="10" stroke-width="2"/><line x1="485.72" y1="79" x2="485.72" y2="50.13" stroke="#636e72" stroke-miterlimit="10" stroke-width="2"/><circle cx="485.72" cy="79" r="4" fill="#636e72"/><circle cx="485.72" cy="46" r="4" fill="none" stroke="#fff" stroke-miterlimit="10"/><line x1="485.72" y1="279" x2="485.72" y2="310" stroke="#636e72" stroke-miterlimit="10" stroke-width="2"/><line x1="485.72" y1="251" x2="485.72" y2="279.87" stroke="#636e72" stroke-miterlimit="10" stroke-width="2"/><circle cx="485.72" cy="251" r="4" fill="#636e72"/><line x1="305.72" y1="168.5" x2="274.22" y2="168.5" stroke="#636e72" stroke-miterlimit="10" stroke-width="2"/><line x1="333.22" y1="168.5" x2="304.35" y2="168.5" stroke="#636e72" stroke-miterlimit="10" stroke-width="2"/><circle cx="333.22" cy="168.5" r="4" fill="#636e72"/><g opacity="0.1"><rect x="408.22" y="435.5" width="156" height="3"/></g><g opacity="0.7"><path d="M293.48,566.06H221.08l1-8.14c20.46-18.37,33.69-67.31,33.69-67.31a6.78,6.78,0,0,0-.87.18c-12,2.42-20.54,7.35-26.51,13.28l2.54-21.66c37.8-8.14,52.79-58.14,52.79-58.14-24.12,5.35-39.16,13.63-48.5,21.49l3.72-31.82c25.56,8.77,52-37.82,52-37.82l-1-.21.5-.32-.76.27c-28.25-6.09-43.35,10.06-48.25,16.77l.37-3.12q-1.12,3-2.18,5.88h0l0,.08q-3,8.13-5.49,16.06l0,0h0q-2.17,6.77-4.06,13.4l0-.06s-1.17-28.46-31.18-35.95c0,0,3.15,62.07,26.93,51.91h0c-2.2,9-4,17.66-5.56,26.07h0q-1.49,8.21-2.6,16l-.14.16.14-.12-.06.41v0h0q-1,7.07-1.7,13.78c.46-8.62-1.11-33.52-30.45-56.92,0,0-39,68.54,27.5,82,.15.13.3.26.44.38l-.1-.31.6.13.27-3.52a369.39,369.39,0,0,0,.23,44.1h0c.07,1,.14,2,.21,2.95H141.37c-27.94,57.79,15.52,89.46,15.52,89.46h120C323.49,596.66,293.48,566.06,293.48,566.06Zm-78-65.68h0v0Z" transform="translate(-114.28 -199)" fill="url(#fe76f7c7-2126-4e48-920d-21143a22d340)"/></g><path d="M217,588s-19-83,23-190" transform="translate(-114.28 -199)" fill="none" stroke="#535461" stroke-miterlimit="10" stroke-width="3" opacity="0.6"/><path d="M143,563H290s29,37-16,92H158S116,617,143,563Z" transform="translate(-114.28 -199)" fill="#636e72"/><path d="M237.89,403.5s14.61-26,49.61-18c0,0-28.93,49.26-55,33.13Z" transform="translate(-114.28 -199)" fill="#4db6ac"/><path d="M228.63,431.09S227.5,404.5,198.5,397.5c0,0,3,58,26,48.5Z" transform="translate(-114.28 -199)" fill="#4db6ac"/><path d="M219.15,470.36s5.35-27.86,61.35-39.86c0,0-17.86,57.62-63.93,55.31Z" transform="translate(-114.28 -199)" fill="#4db6ac"/><path d="M214.61,501.63s5.89-29.13-29.11-56.13c0,0-38,64.67,27.48,76.83Z" transform="translate(-114.28 -199)" fill="#4db6ac"/><path d="M213.56,541.67S209.5,500.5,253.5,492.5c0,0-16.07,57.49-40,67.74Z" transform="translate(-114.28 -199)" fill="#4db6ac"/><path d="M233,419s38-29,54-34" transform="translate(-114.28 -199)" fill="none" stroke="#535461" stroke-miterlimit="10" opacity="0.3"/><path d="M216.5,485.5s46-49,64-55" transform="translate(-114.28 -199)" fill="none" stroke="#535461" stroke-miterlimit="10" opacity="0.3"/><path d="M198.5,397.5s28,38,26,48" transform="translate(-114.28 -199)" fill="none" stroke="#535461" stroke-miterlimit="10" opacity="0.3"/><path d="M185.5,445.5s15,68,27,77" transform="translate(-114.28 -199)" fill="none" stroke="#535461" stroke-miterlimit="10" opacity="0.3"/><path d="M213.5,560.5s24-66,40-68" transform="translate(-114.28 -199)" fill="none" stroke="#535461" stroke-miterlimit="10" opacity="0.3"/><g opacity="0.1"><path d="M290,563H143c-.33.67-.65,1.34-1,2H285s28.29,36.11-14.4,90H274C319,600,290,563,290,563Z" transform="translate(-114.28 -199)"/></g><rect y="455.6" width="971.44" height="32.93" fill="#e0e0e0"/><rect x="41.16" y="488.53" width="889.11" height="13.47" fill="#e0e0e0"/><rect x="41.16" y="488.53" width="889.11" height="4.49" opacity="0.1"/><line x1="690.22" y1="168.5" x2="696.22" y2="168.5" stroke="#636e72" stroke-miterlimit="10" stroke-width="2"/><line x1="637.22" y1="168.5" x2="682.1" y2="168.5" stroke="#636e72" stroke-miterlimit="10" stroke-width="2"/><circle cx="637.22" cy="168.5" r="4" fill="#636e72"/><circle cx="686.22" cy="168.5" r="4" fill="none" stroke="#fff" stroke-miterlimit="10"/><g opacity="0.7"><path d="M1027,643.88l.1-.15q.31-.48.61-1l.11-.19q.29-.49.55-1l.09-.17c.2-.39.39-.78.56-1.19h0a23.79,23.79,0,0,0,.94-2.51l.1-.33c.09-.31.18-.62.26-.93l.1-.44q.1-.42.18-.85c0-.16.06-.32.09-.48s.09-.56.13-.85,0-.33.06-.49.06-.61.08-.92c0-.14,0-.29,0-.43,0-.45,0-.91,0-1.36V548h-13.85V507.52h-17V548H988.39V489.86h-17V548H965V481.55h-17V548H933V630.6c0,13.48,11.21,24.4,25,24.4H1006a25.19,25.19,0,0,0,20.24-10.06l0,0Q1026.61,644.41,1027,643.88Z" transform="translate(-114.28 -199)" fill="url(#2cf89a04-5a05-413b-983a-d2bc296cbb5e)"/></g><rect x="835.72" y="321" width="16" height="100" fill="#535461"/><rect x="835.72" y="288" width="16" height="33" fill="#3ad29f"/><rect x="857.72" y="329" width="16" height="100" fill="#535461"/><rect x="857.72" y="296" width="16" height="33" fill="#4d8af0"/><rect x="884.72" y="346" width="16" height="100" fill="#535461"/><rect x="884.72" y="313" width="16" height="33" fill="#f55f44"/><path d="M821.72,352h92a0,0,0,0,1,0,0v79.5a23.5,23.5,0,0,1-23.5,23.5h-45a23.5,23.5,0,0,1-23.5-23.5V352A0,0,0,0,1,821.72,352Z" fill="#636e72"/><g opacity="0.1"><path d="M936,551v4h88v79.5a23.39,23.39,0,0,1-5,14.49,23.45,23.45,0,0,0,9-18.49V551Z" transform="translate(-114.28 -199)"/></g>
</symbol>

<symbol id="icon-pen" viewBox="0 0 907.88 641.74">
<title>Graphic Design</title>
<defs><linearGradient id="6dbd394d-3147-4710-ae5b-040c9889b819" x1="444.99" y1="641.74" x2="444.99" y2="550.42" gradientUnits="userSpaceOnUse"><stop offset="0" stop-color="gray" stop-opacity="0.25"/><stop offset="0.54" stop-color="gray" stop-opacity="0.12"/><stop offset="1" stop-color="gray" stop-opacity="0.1"/></linearGradient><linearGradient id="25611293-a7d7-4bef-9ea8-eef2963e34c7" x1="586.17" y1="702.27" x2="586.17" y2="250.71" xlink:href="#6dbd394d-3147-4710-ae5b-040c9889b819"/><linearGradient id="f7aa0426-c3ad-4d3b-8596-50aa38a87e77" x1="448.88" y1="71.08" x2="448.88" y2="1.14" xlink:href="#6dbd394d-3147-4710-ae5b-040c9889b819"/><linearGradient id="170327e1-c007-4bc3-aecd-c22d9d8756ba" x1="41" y1="82.01" x2="41" y2="0" xlink:href="#6dbd394d-3147-4710-ae5b-040c9889b819"/><linearGradient id="35baff6c-edbd-4d6b-969d-bf3825558dc6" x1="866.87" y1="82.01" x2="866.87" y2="0" xlink:href="#6dbd394d-3147-4710-ae5b-040c9889b819"/></defs><title>pen</title><polygon points="531.57 550.42 358.41 550.42 358.41 611.3 377.65 611.3 377.65 641.74 512.33 641.74 512.33 611.3 531.57 611.3 531.57 550.42" fill="url(#6dbd394d-3147-4710-ae5b-040c9889b819)"/><path d="M596.87,251.71V460.23c20.73,6.22,29.81,12.58,34.91,26.13a65.58,65.58,0,0,1,2.18,38c-3.27,14-9.28,21.47-25.65,25.81a62.53,62.53,0,0,1-28.41,1c-22.62-4.59-34.51-20-34.51-45.56,0-24.46,8.4-37.44,31.5-45.16V421.29l-1-170.59L406.09,503.22s81.27,67.93,111,199.05H655.23s41.59-152.22,111-189.69Z" transform="translate(-146.06 -129.13)" fill="url(#25611293-a7d7-4bef-9ea8-eef2963e34c7)"/><path d="M599.93,261.88v193.5a55,55,0,1,1-27.52,2.37V261.88l-156,238.55s82.57,73.4,110.1,201.85H645.81s45.87-156,110.1-192.67Z" transform="translate(-146.06 -129.13)" fill="#eceff1"/><rect x="59.35" y="31.83" width="366.99" height="18.35" fill="#eceff1"/><rect x="472.22" y="31.83" width="366.99" height="18.35" fill="#eceff1"/><rect x="380.47" y="591.49" width="128.45" height="45.87" fill="#636e72"/><rect x="413.91" y="1.14" width="69.93" height="69.93" fill="url(#f7aa0426-c3ad-4d3b-8596-50aa38a87e77)"/><rect x="417.17" y="4.3" width="64.22" height="64.22" fill="#636e72"/><circle cx="41" cy="41" r="41" fill="url(#170327e1-c007-4bc3-aecd-c22d9d8756ba)"/><circle cx="866.87" cy="41" r="41" fill="url(#35baff6c-edbd-4d6b-969d-bf3825558dc6)"/><circle cx="41" cy="41" r="36.7" fill="#636e72"/><circle cx="866.74" cy="41" r="36.7" fill="#636e72"/><rect x="362.12" y="554.79" width="165.15" height="55.05" fill="#636e72"/><rect x="362.12" y="554.79" width="165.15" height="55.05" opacity="0.2"/>
</symbol>

<symbol id="icon-realestate" viewBox="0 0 1137 518.05664">
<title>Real Estate</title><path d="M175.76416,701.583l-1.95117-.43946c21.75586-96.751,76.43017-184.60937,153.95117-247.3916A444.114,444.114,0,0,1,1039.919,699.96289l-1.94922.44336C991.916,498.19727,814.69531,356.97168,607,356.97168,402.02637,356.97168,220.66553,501.90137,175.76416,701.583Z" transform="translate(-31.5 -190.97168)" fill="#3f3d56"/><circle cx="899.63335" cy="219.90276" r="54.31516" fill="#ff6584"/><rect x="877" y="437.05664" width="2" height="79" fill="#3f3d56"/><path d="M928.95773,638.096c.12732,27.62433-19.30786,50.10833-19.30786,50.10833s-19.6416-22.3039-19.76892-49.92823,19.30786-50.10833,19.30786-50.10833S928.83041,610.47163,928.95773,638.096Z" transform="translate(-31.5 -190.97168)" fill="#636e72"/><path d="M928.95773,638.096c.12732,27.62433-19.30786,50.10833-19.30786,50.10833s-19.6416-22.3039-19.76892-49.92823,19.30786-50.10833,19.30786-50.10833S928.83041,610.47163,928.95773,638.096Z" transform="translate(-31.5 -190.97168)" opacity="0.1"/><circle cx="501.02166" cy="248.742" r="31.2479" fill="#636e72" opacity="0.4"/><circle cx="443.18972" cy="263.66637" r="21.92017" fill="#636e72" opacity="0.4"/><circle cx="208.18972" cy="326.66637" r="21.92017" fill="#636e72" opacity="0.4"/><circle cx="856.31222" cy="246.17134" r="31.2479" fill="#636e72" opacity="0.4"/><path d="M88.13058,698.24412c1.694,6.26184,7.4961,10.14,7.4961,10.14s3.05572-6.27434,1.36177-12.53618-7.49609-10.14-7.49609-10.14S86.43664,691.98227,88.13058,698.24412Z" transform="translate(-31.5 -190.97168)" fill="#3f3d56"/><path d="M90.61972,696.89838c4.64821,4.52485,5.216,11.4806,5.216,11.4806s-6.9685-.38049-11.61672-4.90534-5.216-11.48059-5.216-11.48059S85.9715,692.37353,90.61972,696.89838Z" transform="translate(-31.5 -190.97168)" fill="#636e72"/><path d="M700.13058,698.24412c1.69395,6.26184,7.4961,10.14,7.4961,10.14s3.05572-6.27434,1.36177-12.53618-7.49609-10.14-7.49609-10.14S698.43664,691.98227,700.13058,698.24412Z" transform="translate(-31.5 -190.97168)" fill="#3f3d56"/><path d="M702.61972,696.89838c4.64821,4.52485,5.216,11.4806,5.216,11.4806s-6.9685-.38049-11.61672-4.90534-5.216-11.48059-5.216-11.48059S697.9715,692.37353,702.61972,696.89838Z" transform="translate(-31.5 -190.97168)" fill="#636e72"/><polygon points="68.137 460.203 64 453.308 102.614 420.21 201.908 420.21 201.908 429.863 166.052 468.478 124.679 476.752 68.137 460.203" fill="#3f3d56"/><polygon points="219 439.633 219 418.056 206 418.056 206 424.86 201.908 420.21 168.81 453.308 163.293 458.824 156.398 486.406 168.81 516.745 232.247 516.745 232.247 454.687 219 439.633" fill="#ccc"/><rect x="64" y="453.30771" width="104.80978" height="63.4375" fill="#f2f2f2"/><rect x="132.26427" y="473.30431" width="22.06522" height="19.30707" fill="#3f3d56"/><rect x="103.99321" y="472.61477" width="19.30707" height="44.13043" fill="#ccc"/><polygon points="81.928 479.51 81.928 472.615 73.654 472.615 73.654 479.51 81.238 479.51 81.928 479.51" fill="#3f3d56"/><polygon points="81.238 485.026 73.654 485.026 73.654 491.922 81.928 491.922 81.928 485.026 81.238 485.026" fill="#3f3d56"/><rect x="87.44429" y="472.61477" width="8.27446" height="6.89538" fill="#3f3d56"/><rect x="87.44429" y="485.02646" width="8.27446" height="6.89538" fill="#3f3d56"/><polygon points="198.46 480.2 198.46 473.304 190.185 473.304 190.185 480.2 197.77 480.2 198.46 480.2" fill="#3f3d56"/><polygon points="197.77 485.716 190.185 485.716 190.185 492.611 198.46 492.611 198.46 485.716 197.77 485.716" fill="#3f3d56"/><rect x="203.97622" y="473.30431" width="8.27446" height="6.89538" fill="#3f3d56"/><rect x="203.97622" y="485.716" width="8.27446" height="6.89538" fill="#3f3d56"/><polygon points="467.137 460.203 463 453.308 501.614 420.21 600.908 420.21 600.908 429.863 565.052 468.478 523.679 476.752 467.137 460.203" fill="#3f3d56"/><polygon points="618 439.633 618 418.056 605 418.056 605 424.86 600.908 420.21 567.81 453.308 562.293 458.824 555.398 486.406 567.81 516.745 631.247 516.745 631.247 454.687 618 439.633" fill="#ccc"/><rect x="463" y="453.30771" width="104.80978" height="63.4375" fill="#f2f2f2"/><rect x="531.26427" y="473.30431" width="22.06522" height="19.30707" fill="#3f3d56"/><rect x="502.99321" y="472.61477" width="19.30707" height="44.13043" fill="#ccc"/><polygon points="480.928 479.51 480.928 472.615 472.654 472.615 472.654 479.51 480.238 479.51 480.928 479.51" fill="#3f3d56"/><polygon points="480.238 485.026 472.654 485.026 472.654 491.922 480.928 491.922 480.928 485.026 480.238 485.026" fill="#3f3d56"/><rect x="486.44429" y="472.61477" width="8.27446" height="6.89538" fill="#3f3d56"/><rect x="486.44429" y="485.02646" width="8.27446" height="6.89538" fill="#3f3d56"/><polygon points="597.46 480.2 597.46 473.304 589.185 473.304 589.185 480.2 596.77 480.2 597.46 480.2" fill="#3f3d56"/><polygon points="596.77 485.716 589.185 485.716 589.185 492.611 597.46 492.611 597.46 485.716 596.77 485.716" fill="#3f3d56"/><rect x="602.97622" y="473.30431" width="8.27446" height="6.89538" fill="#3f3d56"/><rect x="602.97622" y="485.716" width="8.27446" height="6.89538" fill="#3f3d56"/><polygon points="280.515 344.361 273.62 338.844 312.234 304.367 410.148 304.367 410.148 334.707 346.711 377.459 280.515 344.361" fill="#3f3d56"/><polygon points="428 323.707 428 305.056 415 305.056 415 309.624 410.148 304.367 378.429 338.844 366.018 347.119 346.773 487.722 375.796 516.745 443.246 516.745 443.246 340.223 428 323.707" fill="#ccc"/><rect x="273.61957" y="338.84439" width="104.80978" height="177.90082" fill="#f2f2f2"/><rect x="314.30231" y="473.30431" width="19.30707" height="43.4409" fill="#ccc"/><polygon points="293.616 485.716 293.616 478.821 285.342 478.821 285.342 485.716 292.927 485.716 293.616 485.716" fill="#3f3d56"/><polygon points="292.927 491.232 285.342 491.232 285.342 498.128 293.616 498.128 293.616 491.232 292.927 491.232" fill="#3f3d56"/><rect x="299.13247" y="478.82062" width="8.27446" height="6.89538" fill="#3f3d56"/><rect x="299.13247" y="491.2323" width="8.27446" height="6.89538" fill="#3f3d56"/><polygon points="350.158 485.716 350.158 478.821 341.884 478.821 341.884 485.716 349.469 485.716 350.158 485.716" fill="#3f3d56"/><polygon points="349.469 491.232 341.884 491.232 341.884 498.128 350.158 498.128 350.158 491.232 349.469 491.232" fill="#3f3d56"/><rect x="355.67459" y="478.82062" width="8.27446" height="6.89538" fill="#3f3d56"/><rect x="355.67459" y="491.2323" width="8.27446" height="6.89538" fill="#3f3d56"/><polygon points="408.079 347.808 408.079 340.913 399.805 340.913 399.805 347.808 407.39 347.808 408.079 347.808" fill="#3f3d56"/><polygon points="407.39 353.325 399.805 353.325 399.805 360.22 408.079 360.22 408.079 353.325 407.39 353.325" fill="#3f3d56"/><rect x="413.59579" y="340.91301" width="8.27446" height="6.89538" fill="#3f3d56"/><rect x="413.59579" y="353.32469" width="8.27446" height="6.89538" fill="#3f3d56"/><polygon points="408.079 386.423 408.079 379.527 399.805 379.527 399.805 386.423 407.39 386.423 408.079 386.423" fill="#3f3d56"/><polygon points="407.39 391.939 399.805 391.939 399.805 398.834 408.079 398.834 408.079 391.939 407.39 391.939" fill="#3f3d56"/><rect x="413.59579" y="379.52714" width="8.27446" height="6.89538" fill="#3f3d56"/><rect x="413.59579" y="391.93882" width="8.27446" height="6.89538" fill="#3f3d56"/><polygon points="408.079 425.037 408.079 418.141 399.805 418.141 399.805 425.037 407.39 425.037 408.079 425.037" fill="#3f3d56"/><polygon points="407.39 430.553 399.805 430.553 399.805 437.448 408.079 437.448 408.079 430.553 407.39 430.553" fill="#3f3d56"/><rect x="413.59579" y="418.14127" width="8.27446" height="6.89538" fill="#3f3d56"/><rect x="413.59579" y="430.55295" width="8.27446" height="6.89538" fill="#3f3d56"/><polygon points="408.079 463.651 408.079 456.755 399.805 456.755 399.805 463.651 407.39 463.651 408.079 463.651" fill="#3f3d56"/><polygon points="407.39 469.167 399.805 469.167 399.805 476.062 408.079 476.062 408.079 469.167 407.39 469.167" fill="#3f3d56"/><rect x="413.59579" y="456.7554" width="8.27446" height="6.89538" fill="#3f3d56"/><rect x="413.59579" y="469.16708" width="8.27446" height="6.89538" fill="#3f3d56"/><rect x="285.34171" y="347.80839" width="79.98641" height="16.54891" fill="#3f3d56"/><rect x="285.34171" y="380.90621" width="79.98641" height="16.54891" fill="#3f3d56"/><rect x="285.34171" y="414.00404" width="79.98641" height="16.54891" fill="#3f3d56"/><rect x="285.34171" y="447.10187" width="79.98641" height="16.54891" fill="#3f3d56"/><polygon points="683.515 344.361 676.62 338.844 715.234 304.367 813.148 304.367 813.148 334.707 749.711 377.459 683.515 344.361" fill="#3f3d56"/><polygon points="831 323.707 831 305.056 818 305.056 818 309.624 813.148 304.367 781.429 338.844 769.018 347.119 749.773 487.722 778.796 516.745 846.246 516.745 846.246 340.223 831 323.707" fill="#ccc"/><rect x="676.61957" y="338.84439" width="104.80978" height="177.90082" fill="#f2f2f2"/><rect x="717.30231" y="473.30431" width="19.30707" height="43.4409" fill="#ccc"/><polygon points="696.616 485.716 696.616 478.821 688.342 478.821 688.342 485.716 695.927 485.716 696.616 485.716" fill="#3f3d56"/><polygon points="695.927 491.232 688.342 491.232 688.342 498.128 696.616 498.128 696.616 491.232 695.927 491.232" fill="#3f3d56"/><rect x="702.13247" y="478.82062" width="8.27446" height="6.89538" fill="#3f3d56"/><rect x="702.13247" y="491.2323" width="8.27446" height="6.89538" fill="#3f3d56"/><polygon points="753.158 485.716 753.158 478.821 744.884 478.821 744.884 485.716 752.469 485.716 753.158 485.716" fill="#3f3d56"/><polygon points="752.469 491.232 744.884 491.232 744.884 498.128 753.158 498.128 753.158 491.232 752.469 491.232" fill="#3f3d56"/><rect x="758.67459" y="478.82062" width="8.27446" height="6.89538" fill="#3f3d56"/><rect x="758.67459" y="491.2323" width="8.27446" height="6.89538" fill="#3f3d56"/><polygon points="811.079 347.808 811.079 340.913 802.805 340.913 802.805 347.808 810.39 347.808 811.079 347.808" fill="#3f3d56"/><polygon points="810.39 353.325 802.805 353.325 802.805 360.22 811.079 360.22 811.079 353.325 810.39 353.325" fill="#3f3d56"/><rect x="816.59579" y="340.91301" width="8.27446" height="6.89538" fill="#3f3d56"/><rect x="816.59579" y="353.32469" width="8.27446" height="6.89538" fill="#3f3d56"/><polygon points="811.079 386.423 811.079 379.527 802.805 379.527 802.805 386.423 810.39 386.423 811.079 386.423" fill="#3f3d56"/><polygon points="810.39 391.939 802.805 391.939 802.805 398.834 811.079 398.834 811.079 391.939 810.39 391.939" fill="#3f3d56"/><rect x="816.59579" y="379.52714" width="8.27446" height="6.89538" fill="#3f3d56"/><rect x="816.59579" y="391.93882" width="8.27446" height="6.89538" fill="#3f3d56"/><polygon points="811.079 425.037 811.079 418.141 802.805 418.141 802.805 425.037 810.39 425.037 811.079 425.037" fill="#3f3d56"/><polygon points="810.39 430.553 802.805 430.553 802.805 437.448 811.079 437.448 811.079 430.553 810.39 430.553" fill="#3f3d56"/><rect x="816.59579" y="418.14127" width="8.27446" height="6.89538" fill="#3f3d56"/><rect x="816.59579" y="430.55295" width="8.27446" height="6.89538" fill="#3f3d56"/><polygon points="811.079 463.651 811.079 456.755 802.805 456.755 802.805 463.651 810.39 463.651 811.079 463.651" fill="#3f3d56"/><polygon points="810.39 469.167 802.805 469.167 802.805 476.062 811.079 476.062 811.079 469.167 810.39 469.167" fill="#3f3d56"/><rect x="816.59579" y="456.7554" width="8.27446" height="6.89538" fill="#3f3d56"/><rect x="816.59579" y="469.16708" width="8.27446" height="6.89538" fill="#3f3d56"/><rect x="688.34171" y="347.80839" width="79.98641" height="16.54891" fill="#3f3d56"/><rect x="688.34171" y="380.90621" width="79.98641" height="16.54891" fill="#3f3d56"/><rect x="688.34171" y="414.00404" width="79.98641" height="16.54891" fill="#3f3d56"/><rect x="688.34171" y="447.10187" width="79.98641" height="16.54891" fill="#3f3d56"/><polygon points="904.515 344.361 897.62 338.844 936.234 304.367 1034.148 304.367 1034.148 334.707 970.711 377.459 904.515 344.361" fill="#3f3d56"/><polygon points="1052 323.707 1052 305.056 1039 305.056 1039 309.624 1034.148 304.367 1002.429 338.844 990.018 347.119 970.773 487.722 999.796 516.745 1067.246 516.745 1067.246 340.223 1052 323.707" fill="#ccc"/><rect x="897.61957" y="338.84439" width="104.80978" height="177.90082" fill="#f2f2f2"/><rect x="938.30231" y="473.30431" width="19.30707" height="43.4409" fill="#ccc"/><polygon points="917.616 485.716 917.616 478.821 909.342 478.821 909.342 485.716 916.927 485.716 917.616 485.716" fill="#3f3d56"/><polygon points="916.927 491.232 909.342 491.232 909.342 498.128 917.616 498.128 917.616 491.232 916.927 491.232" fill="#3f3d56"/><rect x="923.13247" y="478.82062" width="8.27446" height="6.89538" fill="#3f3d56"/><rect x="923.13247" y="491.2323" width="8.27446" height="6.89538" fill="#3f3d56"/><polygon points="974.158 485.716 974.158 478.821 965.884 478.821 965.884 485.716 973.469 485.716 974.158 485.716" fill="#3f3d56"/><polygon points="973.469 491.232 965.884 491.232 965.884 498.128 974.158 498.128 974.158 491.232 973.469 491.232" fill="#3f3d56"/><rect x="979.67459" y="478.82062" width="8.27446" height="6.89538" fill="#3f3d56"/><rect x="979.67459" y="491.2323" width="8.27446" height="6.89538" fill="#3f3d56"/><polygon points="1032.079 347.808 1032.079 340.913 1023.805 340.913 1023.805 347.808 1031.39 347.808 1032.079 347.808" fill="#3f3d56"/><polygon points="1031.39 353.325 1023.805 353.325 1023.805 360.22 1032.079 360.22 1032.079 353.325 1031.39 353.325" fill="#3f3d56"/><rect x="1037.59579" y="340.91301" width="8.27446" height="6.89538" fill="#3f3d56"/><rect x="1037.59579" y="353.32469" width="8.27446" height="6.89538" fill="#3f3d56"/><polygon points="1032.079 386.423 1032.079 379.527 1023.805 379.527 1023.805 386.423 1031.39 386.423 1032.079 386.423" fill="#3f3d56"/><polygon points="1031.39 391.939 1023.805 391.939 1023.805 398.834 1032.079 398.834 1032.079 391.939 1031.39 391.939" fill="#3f3d56"/><rect x="1037.59579" y="379.52714" width="8.27446" height="6.89538" fill="#3f3d56"/><rect x="1037.59579" y="391.93882" width="8.27446" height="6.89538" fill="#3f3d56"/><polygon points="1032.079 425.037 1032.079 418.141 1023.805 418.141 1023.805 425.037 1031.39 425.037 1032.079 425.037" fill="#3f3d56"/><polygon points="1031.39 430.553 1023.805 430.553 1023.805 437.448 1032.079 437.448 1032.079 430.553 1031.39 430.553" fill="#3f3d56"/><rect x="1037.59579" y="418.14127" width="8.27446" height="6.89538" fill="#3f3d56"/><rect x="1037.59579" y="430.55295" width="8.27446" height="6.89538" fill="#3f3d56"/><polygon points="1032.079 463.651 1032.079 456.755 1023.805 456.755 1023.805 463.651 1031.39 463.651 1032.079 463.651" fill="#3f3d56"/><polygon points="1031.39 469.167 1023.805 469.167 1023.805 476.062 1032.079 476.062 1032.079 469.167 1031.39 469.167" fill="#3f3d56"/><rect x="1037.59579" y="456.7554" width="8.27446" height="6.89538" fill="#3f3d56"/><rect x="1037.59579" y="469.16708" width="8.27446" height="6.89538" fill="#3f3d56"/><rect x="909.34171" y="347.80839" width="79.98641" height="16.54891" fill="#3f3d56"/><rect x="909.34171" y="380.90621" width="79.98641" height="16.54891" fill="#3f3d56"/><rect x="909.34171" y="414.00404" width="79.98641" height="16.54891" fill="#3f3d56"/><rect x="909.34171" y="447.10187" width="79.98641" height="16.54891" fill="#3f3d56"/><rect y="516.05664" width="1137" height="2" fill="#3f3d56"/><rect x="252" y="437.05664" width="2" height="79" fill="#3f3d56"/><path d="M303.95773,638.096c.12732,27.62433-19.30786,50.10833-19.30786,50.10833s-19.6416-22.3039-19.76892-49.92823,19.30786-50.10833,19.30786-50.10833S303.83041,610.47163,303.95773,638.096Z" transform="translate(-31.5 -190.97168)" fill="#636e72"/><rect x="452" y="437.05664" width="2" height="79" fill="#3f3d56"/><path d="M503.95773,638.096c.12732,27.62433-19.30786,50.10833-19.30786,50.10833s-19.6416-22.3039-19.76892-49.92823,19.30786-50.10833,19.30786-50.10833S503.83041,610.47163,503.95773,638.096Z" transform="translate(-31.5 -190.97168)" fill="#636e72"/><rect x="851" y="437.05664" width="2" height="79" fill="#3f3d56"/><path d="M902.95773,638.096c.12732,27.62433-19.30786,50.10833-19.30786,50.10833s-19.6416-22.3039-19.76892-49.92823,19.30786-50.10833,19.30786-50.10833S902.83041,610.47163,902.95773,638.096Z" transform="translate(-31.5 -190.97168)" fill="#636e72"/><ellipse cx="587.5" cy="163.5" rx="38" ry="8.55" fill="#636e72"/><path d="M662,234.97168c0,24.30053-44,93-44,93s-44-68.69947-44-93a44,44,0,0,1,88,0Z" transform="translate(-31.5 -190.97168)" fill="#636e72"/><circle cx="586.5" cy="44" r="25" fill="#f2f2f2"/>
</svg>
